<?xml version="1.0" standalone="no"?>
<!DOCTYPE svg PUBLIC "-//W3C//DTD SVG 20010904//EN"
 "http://www.w3.org/TR/2001/REC-SVG-20010904/DTD/svg10.dtd">
<svg version="1.0" xmlns="http://www.w3.org/2000/svg"
 width="512.000000pt" height="512.000000pt" viewBox="0 0 512.000000 512.000000"
 preserveAspectRatio="xMidYMid meet">

<g transform="translate(0.000000,512.000000) scale(0.100000,-0.100000)"
fill="#000000" stroke="none">
<path d="M193 4256 c-94 -30 -161 -98 -183 -187 -7 -31 -10 -488 -8 -1534 l3
-1490 30 -54 c17 -30 48 -67 69 -83 86 -62 -81 -58 2456 -58 2537 0 2370 -4
2456 58 21 16 53 53 69 83 l30 54 0 1515 0 1515 -30 54 c-16 30 -48 67 -69 83
-86 62 82 58 -2460 57 -1880 0 -2329 -3 -2363 -13z m4547 -200 c-8 -7 -475
-358 -1037 -779 -685 -514 -1034 -769 -1060 -776 -49 -14 -117 -14 -166 0 -26
7 -375 262 -1060 776 -562 421 -1029 772 -1037 779 -12 12 314 14 2180 14
1866 0 2192 -2 2180 -14z m-3460 -921 c580 -435 1074 -799 1098 -808 24 -10
74 -23 112 -29 84 -14 187 0 265 36 27 13 525 380 1105 815 l1055 792 3 -685
c1 -377 1 -994 0 -1370 l-3 -685 -555 685 c-305 377 -562 690 -571 695 -27 14
-77 11 -104 -7 -28 -19 -47 -67 -39 -101 4 -14 260 -339 570 -722 l564 -696
-1110 -3 c-611 -1 -1609 -1 -2220 0 l-1110 3 564 696 c310 383 566 708 570
722 8 34 -11 82 -39 101 -25 16 -71 21 -100 10 -8 -4 -264 -313 -567 -688
-303 -374 -555 -685 -559 -690 -5 -6 -9 584 -9 1363 0 1095 3 1371 13 1365 6
-5 487 -364 1067 -799z"/>
</g>
</svg>
